<?xml version="1.0" standalone="no"?>
<!DOCTYPE svg PUBLIC "-//W3C//DTD SVG 20010904//EN"
 "http://www.w3.org/TR/2001/REC-SVG-20010904/DTD/svg10.dtd">
<svg version="1.0" xmlns="http://www.w3.org/2000/svg"
 width="700.000000pt" height="700.000000pt" viewBox="0 0 700.000000 700.000000"
 preserveAspectRatio="xMidYMid meet">
<metadata>
Created by potrace 1.14, written by Peter Selinger 2001-2017
</metadata>
<g transform="translate(0.000000,700.000000) scale(0.100000,-0.100000)"
fill="#000000" stroke="none">
<path d="M3165 5799 c-285 -35 -542 -113 -800 -243 -459 -233 -818 -592 -1051
-1051 -176 -349 -254 -679 -254 -1075 0 -313 48 -579 155 -855 322 -833 1072
-1412 1964 -1515 134 -16 501 -8 635 14 421 68 828 255 1164 533 389 323 679
802 791 1309 51 230 66 566 37 804 -110 880 -686 1616 -1514 1936 -281 109
-542 155 -867 153 -104 -1 -221 -5 -260 -10z m566 -395 c653 -91 1219 -506
1509 -1105 71 -147 120 -295 157 -468 26 -119 28 -141 28 -386 0 -245 -2 -267
-28 -386 -64 -301 -182 -564 -356 -799 -70 -93 -232 -262 -331 -345 -238 -198
-541 -342 -869 -412 -119 -26 -141 -28 -386 -28 -245 0 -267 2 -386 28 -376
80 -695 244 -957 491 -313 296 -510 644 -598 1059 -35 164 -44 482 -20 657
100 719 573 1317 1250 1581 134 52 225 77 381 105 163 28 435 32 606 8z"/>
<path d="M3390 4843 c-8 -3 -18 -11 -22 -17 -4 -6 -8 -393 -8 -861 0 -467 4
-855 8 -861 13 -19 56 -44 77 -44 30 0 805 777 805 808 0 21 -49 62 -75 62 -5
0 -166 -156 -357 -347 l-348 -348 0 790 c0 435 -4 795 -8 802 -9 14 -52 24
-72 16z"/>
</g>
</svg>
